<svg width="33" height="33" viewBox="0 0 33 33" fill="none" xmlns="http://www.w3.org/2000/svg">
<rect width="33" height="33" rx="1.5" fill="#79D6FF"/>
<path d="M11.036 16.2422C10.7425 16.2422 10.4524 16.109 10.2624 15.8562L5.15898 9.06649C5.00465 8.8613 4.93843 8.60323 4.97443 8.3492C5.01069 8.09541 5.14639 7.86605 5.35158 7.71197C8.59287 5.28113 12.4487 3.99609 16.502 3.99609C20.5552 3.99609 24.4111 5.28113 27.6524 7.71197C27.8576 7.86605 27.9933 8.09516 28.0295 8.3492C28.0655 8.60323 27.9993 8.8613 27.8452 9.06649L22.7416 15.8562C22.4208 16.283 21.8153 16.3691 21.3886 16.0488C19.9681 14.9836 18.2785 14.4204 16.502 14.4204C14.7257 14.4204 13.0359 14.9836 11.6154 16.0488C11.4414 16.1792 11.2377 16.2422 11.036 16.2422Z" fill="#4183A6"/>
<path d="M21.3866 16.0488C21.8134 16.3691 22.4189 16.2827 22.7394 15.8562L27.843 9.06649C27.9973 8.8613 28.0635 8.60323 28.0275 8.3492C27.9913 8.09541 27.8556 7.86605 27.6504 7.71197C24.4091 5.28113 20.5532 3.99609 16.5 3.99609V14.4204C18.2765 14.4204 19.9661 14.9836 21.3866 16.0488Z" fill="#4183A6"/>
<path d="M7.30078 8.70114L11.2533 13.9596C12.8312 12.9941 14.6268 12.4878 16.5002 12.4878C18.3736 12.4878 20.1693 12.9941 21.7471 13.9596L25.6996 8.70114C22.9682 6.88563 19.8075 5.93066 16.5002 5.93066C13.193 5.93066 10.0322 6.88563 7.30078 8.70114Z" fill="white"/>
<path d="M21.7469 13.9596L25.6994 8.70114C22.968 6.88563 19.8073 5.93066 16.5 5.93066V12.4878C18.3734 12.4878 20.169 12.9941 21.7469 13.9596Z" fill="white"/>
<path d="M16.502 14.4199C15.9679 14.4199 15.5352 13.9871 15.5352 13.4531V9.58594C15.5352 9.05193 15.9679 8.61914 16.502 8.61914C17.036 8.61914 17.4688 9.05193 17.4688 9.58594V13.4531C17.4688 13.9871 17.036 14.4199 16.502 14.4199Z" fill="#4183A6"/>
<path d="M17.4668 13.4531V9.58594C17.4668 9.05193 17.034 8.61914 16.5 8.61914V14.4199C17.034 14.4199 17.4668 13.9871 17.4668 13.4531Z" fill="#4183A6"/>
</svg>
