<svg width="33" height="33" viewBox="0 0 33 33" fill="none" xmlns="http://www.w3.org/2000/svg">
<path d="M30.795 21.8474C30.684 21.6625 30.5361 21.5145 30.3696 21.385C29.6887 20.7893 28.5415 20.8456 27.8729 21.57L23.6745 26.4157L23.545 26.5636C23.0272 27.1369 22.2873 27.4514 21.5106 27.4514H14.3345C13.8166 27.4514 13.4098 27.0445 13.4098 26.5267C13.4098 26.0087 13.8166 25.6019 14.3345 25.6019H19.9755C20.9927 25.6019 21.825 24.7696 21.825 23.7524V23.7339C21.8065 22.7167 20.9927 21.9029 19.9755 21.9029H16.6279C16.0733 21.9029 15.479 21.6993 15.0004 21.2925C12.744 19.3136 9.12597 19.5663 6.70312 21.2494V32.1332C8.53413 32.6327 10.7465 32.9999 12.6514 32.9999H20.9003C22.9347 32.9999 24.8582 32.0381 26.0789 30.4106L30.5177 24.4922C31.1652 23.6421 31.2141 22.4763 30.795 21.8474Z" fill="#FFCEBF"/>
<path d="M26.9469 1.91082C25.8505 0.67859 24.3306 0 22.6672 0C20.8107 0 19.2013 0.877876 18.0131 2.53866C17.924 2.66315 17.8407 2.78771 17.7626 2.91094C17.6845 2.78764 17.6012 2.66315 17.5121 2.53866C16.3239 0.877876 14.7146 0 12.858 0C11.1946 0 9.67472 0.67859 8.57838 1.91075C7.53792 3.08011 6.96484 4.64337 6.96484 6.31259C6.96484 8.12653 7.66874 9.80037 9.17986 11.5804C10.4985 13.1333 12.3898 14.7297 14.5797 16.5781C15.389 17.2612 16.2259 17.9675 17.1152 18.7382C17.3009 18.8992 17.5317 18.9798 17.7626 18.9798C17.9934 18.9798 18.2242 18.8992 18.41 18.7382C19.2991 17.9676 20.1359 17.2614 20.9452 16.5784C22.3516 15.3913 23.5663 14.3661 24.6203 13.3716C26.6667 11.4409 28.5604 9.2493 28.5604 6.31266C28.5604 4.64343 27.9873 3.08018 26.9469 1.91082Z" fill="#FE6067"/>
<rect x="1" y="20.9072" width="6.21935" height="11.4021" rx="0.5" fill="#13A3AC"/>
</svg>
