<svg width="33" height="33" viewBox="0 0 33 33" fill="none" xmlns="http://www.w3.org/2000/svg">
<path d="M28.8989 4.10178L25.5042 0.707111C25.1137 0.316585 24.4805 0.316588 24.09 0.707116L20.0117 4.78543L23.4299 13.6726L28.8989 4.10178Z" fill="#D3D7E0"/>
<path d="M28.8987 4.10254L21.3789 11.6224L28.2152 12.9897L32.2934 8.91142C32.6839 8.5209 32.6839 7.88774 32.2934 7.49721L28.8987 4.10254Z" fill="#D3D7E0"/>
<path d="M2.20532 26.2012L0 33.0008L7.23702 28.4983L2.20532 26.2012Z" fill="#805445"/>
<path d="M0 32.9995L6.79958 30.7943L5.86966 27.1299L0 32.9995Z" fill="#805445"/>
<path d="M12.139 23.5939L3.93555 20.8594L2.20312 26.2009L4.50029 28.4981L12.139 23.5939Z" fill="#FBE5BB"/>
<path d="M4.50391 28.497L6.80113 30.7942L12.1426 29.0618L10.7754 22.2256L4.50391 28.497Z" fill="#FBE5BB"/>
<path d="M8.03906 24.96L12.1408 29.0617L28.2141 12.9884L24.1124 8.88672L13.4024 14.1277L8.03906 24.96Z" fill="#FE6067"/>
<path d="M3.9375 20.8584L20.0084 4.78752L24.1095 8.88864L8.03862 24.9595L3.9375 20.8584Z" fill="#FE6067"/>
</svg>
