<svg width="33" height="34" viewBox="0 0 33 34" fill="none" xmlns="http://www.w3.org/2000/svg">
<rect width="33" height="33" fill="white"/>
<path d="M22.6886 25.3307C22.4179 25.7842 21.9287 26.0619 21.4006 26.0619H7.11883H1.5C0.671572 26.0619 0 25.3903 0 24.5619V2.43359C0 1.60517 0.671573 0.933594 1.5 0.933594H27.5889C28.3826 0.933594 29.039 1.55191 29.0863 2.34421L29.7245 13.0364C29.7424 13.337 29.6695 13.636 29.5151 13.8946L22.6886 25.3307Z" fill="#3AB1F0"/>
<path d="M16.5 0.933594H31.4998C32.3282 0.933594 32.9998 1.60517 32.9998 2.43359V24.5619C32.9998 25.3903 32.3282 26.0619 31.4998 26.0619H16.5V0.933594Z" fill="#3AB1F0"/>
<path d="M14.3825 19.7822L13.5568 16.9596H9.23567L8.38245 19.7822H5.04297L9.48337 6.93359H13.6027L18.0523 19.7822H14.3825ZM11.3274 9.82743L9.87787 14.6089H12.9238L11.5017 9.82743H11.3274Z" fill="white"/>
<path d="M23.2226 17.7343C23.7363 17.7343 24.1675 17.5888 24.5162 17.298C24.8709 17.0071 25.0483 16.648 25.0483 16.2206V15.5706L23.3327 15.6774C22.8556 15.713 22.4917 15.8199 22.2409 15.998C21.9901 16.1761 21.8648 16.4135 21.8648 16.7103C21.8648 17.0249 21.9871 17.2742 22.2317 17.4583C22.4825 17.6423 22.8128 17.7343 23.2226 17.7343ZM22.0391 19.9336C21.0544 19.9336 20.2562 19.6605 19.6446 19.1144C19.0391 18.5624 18.7363 17.8352 18.7363 16.9329C18.7363 16.0306 19.0849 15.3242 19.7822 14.8137C20.4855 14.2973 21.4978 14.0005 22.8189 13.9233L25.0483 13.7987V13.024C25.0483 12.6856 24.9229 12.4245 24.6721 12.2404C24.4275 12.0505 24.0819 11.9555 23.6354 11.9555C22.773 11.9555 22.2348 12.2226 22.0207 12.7569H19.1033C19.1767 11.7952 19.6354 11.0354 20.4794 10.4774C21.3235 9.91944 22.4366 9.64044 23.8189 9.64044C25.2256 9.64044 26.3143 9.93725 27.085 10.5309C27.8556 11.1245 28.241 11.9555 28.241 13.024V19.7822H25.085V18.5535H24.9107C24.6844 18.9749 24.3113 19.3103 23.7914 19.5596C23.2715 19.8089 22.6874 19.9336 22.0391 19.9336Z" fill="white"/>
<path d="M6.05078 31.5339V23.9336C6.05078 23.3813 6.4985 22.9336 7.05078 22.9336H14.7166C15.6095 22.9336 16.0547 24.015 15.4206 24.6437L7.75485 32.2441C7.12366 32.8699 6.05078 32.4228 6.05078 31.5339Z" fill="#3AB1F0"/>
</svg>
