<svg width="33" height="33" viewBox="0 0 33 33" fill="none" xmlns="http://www.w3.org/2000/svg">
<g clip-path="url(#clip0)">
<path d="M6.83203 1.93359H2.96484V30.0996C2.96484 31.7014 4.26347 33 5.86523 33H6.83203L8.76562 23.1467L6.83203 3.86719V1.93359Z" fill="#13A3AC"/>
<path d="M6.83203 3.86719H30.0352V33H6.83203V3.86719Z" fill="#37D0B2"/>
<path d="M18.4336 4.86719C18.4336 4.3149 18.8813 3.86719 19.4336 3.86719H27.0352C28.692 3.86719 30.0352 5.21033 30.0352 6.86719V32C30.0352 32.5523 29.5874 33 29.0352 33H19.4336C18.8813 33 18.4336 32.5523 18.4336 32V4.86719Z" fill="#37D0B2"/>
<path d="M19.4336 1.93359C18.8813 1.93359 18.4336 2.38131 18.4336 2.93359V14.5043C18.4336 15.3029 19.3237 15.7793 19.9882 15.3364L21.7462 14.1647C22.082 13.9408 22.5195 13.9408 22.8554 14.1647L24.6133 15.3364C25.2779 15.7793 26.168 15.3029 26.168 14.5043V2.93359C26.168 2.38131 25.7203 1.93359 25.168 1.93359H19.4336Z" fill="#CDFFF5"/>
<path d="M28.1016 0V3.86719H4.89844C3.83496 3.86719 2.96484 2.99707 2.96484 1.93359C2.96484 0.870117 3.83496 0 4.89844 0H28.1016Z" fill="#D2E0E3"/>
<path d="M18.4336 0H28.1016V3.86719H18.4336V0Z" fill="#D2E0E3"/>
</g>
<defs>
<clipPath id="clip0">
<rect width="33" height="33" fill="white"/>
</clipPath>
</defs>
</svg>
