<svg width="33" height="33" viewBox="0 0 33 33" fill="none" xmlns="http://www.w3.org/2000/svg">
<rect width="33" height="33" fill="white"/>
<path fill-rule="evenodd" clip-rule="evenodd" d="M24.2602 3C21.5735 3 19.4648 5.16105 19.4648 9.72779C21.3263 10.2649 23.2506 9.95348 24.2602 7.75903C25.2698 9.95356 27.194 10.265 29.0555 9.72779C29.0555 5.16105 27.1274 3 24.2602 3Z" fill="#6E563D"/>
<path fill-rule="evenodd" clip-rule="evenodd" d="M8.08854 29.687H12.5854H16.1752V23.2373C16.1182 19.3059 12.6767 19.099 10.1554 18.1836C10.1554 19.4334 9.22559 20.4555 8.08854 20.4555C6.95149 20.4555 6.01984 19.4335 6.01984 18.1836C3.49855 19.099 0.0589621 19.3059 0 23.2373V29.6871H3.58985H8.08854V29.687Z" fill="#FE6067"/>
<path fill-rule="evenodd" clip-rule="evenodd" d="M19.7636 29.687H24.2604H28.7591H32.349V23.2373C32.3185 21.2706 31.4439 20.236 30.2593 19.5776C29.0785 18.9213 27.5879 18.6413 26.3291 18.1836C26.3291 19.4334 25.3975 20.4555 24.2604 20.4555C23.1234 20.4555 22.1936 19.4335 22.1936 18.1836C20.933 18.6413 19.4442 18.9213 18.2615 19.5776C17.077 20.236 16.2023 21.2706 16.1719 23.2373V29.6871H19.7636V29.687Z" fill="#79D6FF"/>
<path fill-rule="evenodd" clip-rule="evenodd" d="M6.01953 18.1836C6.01953 19.4335 6.95119 20.4555 8.08824 20.4555C9.22529 20.4555 10.1551 19.4335 10.1551 18.1836V16.6914C10.1227 16.706 10.0885 16.7227 10.0562 16.7374C9.44967 17.0216 8.78418 17.1763 8.08824 17.1763C7.39042 17.1763 6.72493 17.0216 6.11841 16.7374C6.08607 16.7228 6.05374 16.7061 6.01953 16.6914V18.1836Z" fill="#FFC89F"/>
<path fill-rule="evenodd" clip-rule="evenodd" d="M30.2583 19.5781C29.0775 18.9218 27.5869 18.6417 26.3281 18.184V16.0271C27.9367 15.1765 29.0547 13.3623 29.0547 11.2744C29.0547 14.6791 31.306 16.1588 32.9982 16.7733C32.5685 18.6794 31.8992 19.321 30.2583 19.5781Z" fill="#6E563D"/>
<path fill-rule="evenodd" clip-rule="evenodd" d="M22.1974 18.1842C20.9368 18.6419 19.448 18.9219 18.2654 19.5782C16.6245 19.3211 15.957 18.6795 15.5273 16.7734C17.2139 16.161 19.4575 14.6876 19.4689 11.3018C19.4785 13.3771 20.5946 15.1787 22.1974 16.0294V18.1842Z" fill="#6E563D"/>
<path fill-rule="evenodd" clip-rule="evenodd" d="M26.3331 16.0278C25.7056 16.3601 25.004 16.5461 24.2644 16.5461C23.5248 16.5461 22.8231 16.3601 22.1975 16.0299C20.5946 15.1792 19.4785 13.3798 19.469 11.3043C19.4596 9.22885 19.469 11.3043 19.469 11.3022C19.469 11.2939 19.469 11.2855 19.469 11.2751V9.72853C21.3305 10.2657 23.2548 9.95422 24.2644 7.75977C25.274 9.95429 27.1983 10.2657 29.0597 9.72853V11.2751C29.0597 13.363 27.9417 15.1772 26.3331 16.0278Z" fill="#FFC89F"/>
<path fill-rule="evenodd" clip-rule="evenodd" d="M3.01562 11.594V10.1644C4.45117 10.0056 5.62244 9.90729 6.5009 8.63867C8.2483 9.95329 10.7106 10.3191 13.1748 10.1288V10.1644V11.594C13.1748 13.8992 11.8876 15.8889 10.0641 16.7375C9.45759 17.0217 8.7921 17.1764 8.09616 17.1764C7.39834 17.1764 6.73285 17.0217 6.12633 16.7375C4.30286 15.8889 3.01562 13.8992 3.01562 11.594Z" fill="#FFC89F"/>
<path fill-rule="evenodd" clip-rule="evenodd" d="M3.01562 8.66656C3.01562 5.59426 5.30113 3.08203 8.09616 3.08203C10.8893 3.08203 13.1748 5.59426 13.1748 8.66656V10.1296C10.7106 10.3198 8.2483 9.95404 6.5009 8.63942C5.62244 9.90804 4.45117 10.0063 3.01562 10.1651V8.66656Z" fill="#6E563D"/>
<path fill-rule="evenodd" clip-rule="evenodd" d="M26.3251 18.1842C26.3251 19.434 25.3953 20.4561 24.2582 20.4561C23.1212 20.4561 22.1914 19.4341 22.1914 18.1842V16.0294C22.817 16.3596 23.5186 16.5457 24.2582 16.5457C24.9979 16.5457 25.6995 16.3596 26.3269 16.0273L26.3251 18.1842Z" fill="#FFC89F"/>
<path fill-rule="evenodd" clip-rule="evenodd" d="M19.8654 20.4626C17.7511 18.6882 14.7336 18.6882 12.6211 20.4626V20.7699C12.6211 22.1932 13.3094 23.4493 14.338 24.1536C14.8932 24.5319 15.5455 24.7513 16.2432 24.7513C16.9391 24.7513 17.5932 24.5319 18.1465 24.1536C19.1751 23.4493 19.8654 22.1932 19.8654 20.7699V20.4626H19.8654Z" fill="#FFC89F"/>
<path fill-rule="evenodd" clip-rule="evenodd" d="M16.2433 15.7451C14.243 15.7451 12.6211 17.5258 12.6211 19.7266V20.4623C14.7335 18.6879 17.7511 18.6879 19.8654 20.4623V19.7391C19.8654 17.5259 18.2436 15.7451 16.2433 15.7451Z" fill="#6E563D"/>
<path fill-rule="evenodd" clip-rule="evenodd" d="M18.1405 24.1533C17.5872 24.5316 16.9331 24.7511 16.2372 24.7511C15.5394 24.7511 14.8872 24.5316 14.332 24.1533V25.7689C14.332 26.887 15.1648 27.8046 16.184 27.8046C17.2602 27.8046 18.1406 26.9875 18.1406 25.7689V24.1533H18.1405Z" fill="#FFC89F"/>
<path fill-rule="evenodd" clip-rule="evenodd" d="M18.1387 25.7686C18.1387 26.987 17.2583 27.8043 16.1821 27.8043C15.163 27.8043 14.3301 26.8868 14.3301 25.7686C12.0713 26.5879 9.7896 26.7739 9.73828 30.2934V31.4784H16.2354H22.7305V30.2934C22.6792 26.7739 20.3975 26.5879 18.1387 25.7686Z" fill="#37D0B2"/>
</svg>
