<svg width="33" height="33" viewBox="0 0 33 33" fill="none" xmlns="http://www.w3.org/2000/svg">
<path d="M33 16.5C33 25.6128 25.6128 33 16.5 33C7.38731 33 0 25.6128 0 16.5C0 7.38731 7.38731 0 16.5 0C25.6128 0 33 7.38731 33 16.5Z" fill="#FFDD28"/>
<path d="M29.8063 16.5001C29.8063 23.8491 23.8488 29.8065 16.4998 29.8065C9.15086 29.8065 3.19336 23.8491 3.19336 16.5001C3.19336 9.15111 9.15086 3.1936 16.4998 3.1936C23.8488 3.1936 29.8063 9.15111 29.8063 16.5001Z" fill="#FFA739"/>
<path fill-rule="evenodd" clip-rule="evenodd" d="M9.87717 10.865C10.5395 10.6574 11.2447 11.0259 11.4523 11.6882L13.4142 17.9457L15.3761 11.6882C15.5405 11.1641 16.0261 10.8075 16.5753 10.8075C17.1246 10.8075 17.6101 11.1641 17.7745 11.6882L19.7365 17.9457L21.6983 11.6882C21.906 11.0259 22.6113 10.6574 23.2735 10.865C23.9357 11.0727 24.3043 11.7779 24.0967 12.4402L20.9356 22.5224C20.7713 23.0465 20.2856 23.4031 19.7365 23.4031C19.1872 23.4031 18.7015 23.0465 18.5373 22.5224L16.5753 16.2648L14.6134 22.5224C14.4491 23.0465 13.9635 23.4031 13.4142 23.4031C12.865 23.4031 12.3794 23.0465 12.2151 22.5224L9.05399 12.4402C8.84635 11.7779 9.21489 11.0727 9.87717 10.865Z" fill="#FFDD28"/>
<path fill-rule="evenodd" clip-rule="evenodd" d="M7.85156 16.4992C7.85156 15.8051 8.41422 15.2424 9.10828 15.2424H10.5868C11.2808 15.2424 11.8435 15.8051 11.8435 16.4992C11.8435 17.1933 11.2808 17.7559 10.5868 17.7559H9.10828C8.41422 17.7559 7.85156 17.1933 7.85156 16.4992Z" fill="#FFDD28"/>
<path fill-rule="evenodd" clip-rule="evenodd" d="M21.1562 16.4992C21.1562 15.8051 21.7188 15.2424 22.413 15.2424H23.8916C24.5856 15.2424 25.1482 15.8051 25.1482 16.4992C25.1482 17.1933 24.5856 17.7559 23.8916 17.7559H22.413C21.7188 17.7559 21.1562 17.1933 21.1562 16.4992Z" fill="#FFDD28"/>
</svg>
